<svg width="692" height="188" viewBox="0 0 692 188" fill="none" xmlns="http://www.w3.org/2000/svg">
<path d="M431.98 96.9278C431.98 113.708 438.793 121.094 452.083 121.094C465.373 121.094 474.958 112.608 474.958 94.3457L474.982 94.3457L474.982 51.3916L503.738 51.3916L503.738 134.001C503.738 170.884 484.376 187.855 449.717 187.855C431.454 187.855 413.742 183.241 402.316 174.206L413.742 153.554C422.036 160.39 434.945 164.621 447.302 164.621C466.664 164.621 474.958 155.586 474.958 137.706L474.958 134.384C467.38 141.937 457.054 145.81 445.629 145.81C420.746 145.81 403.225 131.97 403.224 101.183L403.224 51.3916L431.98 51.3916L431.98 96.9278ZM632.698 49.9346C644.865 49.9347 655.191 53.8071 662.385 61.9102L662.385 51.3926L691.141 51.3926L691.141 150.614L663.677 150.614L663.677 139.189C656.482 147.866 645.964 152.097 632.698 152.097C604.683 152.097 583.098 132.185 583.098 101.016C583.098 69.8459 604.66 49.9346 632.698 49.9346ZM255.573 21.5127L255.573 81.8203L312.75 21.5127L345.927 21.5127L292.456 79.0479L349.058 150.59L314.208 150.59L272.903 99.8916L255.573 117.962L255.573 150.59L225.885 150.59L225.885 21.5127L255.573 21.5127ZM386.706 150.59L357.951 150.59L357.951 21.5127L386.706 21.5127L386.706 150.59ZM581.805 76.4424C579.415 76.2751 577.575 76.084 575.352 76.084C559.504 76.084 548.986 84.7372 548.986 103.74L548.986 150.566L520.231 150.566L520.231 51.3682L547.696 51.3682L547.696 64.4434C554.7 54.8582 566.507 49.8858 581.805 49.8858L581.805 76.4424ZM637.67 73.5264C623.28 73.5264 612.213 83.8529 612.213 100.991C612.213 118.13 623.28 128.456 637.67 128.456C651.868 128.456 662.935 118.13 662.935 100.991C662.935 83.853 652.059 73.5266 637.67 73.5264Z" fill="black"></path>
<path d="M64.5391 107.564L64.539 172.104L-1.50458e-05 172.104L-9.40358e-06 107.564L64.5391 107.564ZM64.5391 5.64218e-06L64.5391 48.4043C64.5391 52.874 66.3554 56.8895 69.2715 59.8057L129.077 1.12843e-05L172.079 1.50436e-05L172.079 43.0254L107.541 107.564L145.618 107.564C148.797 107.564 151.833 108.808 154.08 111.055L172.104 129.077L172.104 172.104L129.077 172.104L7.0039 50.0293C2.5101 45.5594 1.58821e-06 39.4642 -2.89631e-06 33.1299L0 0L64.5391 5.64218e-06Z" fill="#003FE4"></path>
</svg>