<svg width="250" height="68" viewBox="0 0 250 68" fill="none" xmlns="http://www.w3.org/2000/svg">
<path d="M156.256 35.061C156.256 41.1307 158.72 43.8023 163.527 43.8023C168.334 43.8021 171.802 40.7329 171.802 34.1274L171.811 34.1274L171.811 18.5894L182.212 18.5894L182.212 48.4712C182.212 61.8125 175.208 67.9517 162.671 67.9517C156.065 67.9516 149.658 66.2824 145.525 63.0142L149.658 55.5444C152.658 58.0172 157.328 59.5474 161.798 59.5474C168.801 59.5474 171.802 56.2792 171.802 49.812L171.802 48.6099C169.061 51.3421 165.325 52.7427 161.192 52.7427C152.192 52.7426 145.854 47.7364 145.854 36.6001L145.854 18.5894L156.256 18.5894L156.256 35.061ZM228.861 18.062C233.262 18.0621 236.997 19.4632 239.6 22.3941L239.6 18.5903L250.001 18.5903L250.001 54.481L240.066 54.481L240.066 50.3482C237.464 53.4865 233.66 55.017 228.861 55.0171C218.728 55.0171 210.92 47.8144 210.92 36.5396C210.92 25.2648 218.719 18.062 228.861 18.062ZM92.4453 7.78174L92.4453 29.5962L113.128 7.78174L125.129 7.78174L105.787 28.5933L126.262 54.4722L113.655 54.4722L98.7148 36.1333L92.4453 42.6694L92.4453 54.4722L81.707 54.4722L81.707 7.78174L92.4453 7.78174ZM139.88 54.4722L129.479 54.4722L129.479 7.78174L139.88 7.78174L139.88 54.4722ZM210.45 27.6509C209.586 27.5904 208.92 27.521 208.116 27.521C202.384 27.521 198.579 30.6513 198.579 37.5249L198.579 54.4634L188.178 54.4634L188.178 18.5816L198.112 18.5816L198.112 23.311C200.646 19.844 204.917 18.0455 210.45 18.0454L210.45 27.6509ZM230.659 26.5962C225.454 26.5963 221.451 30.3316 221.451 36.5308C221.451 42.7301 225.454 46.4652 230.659 46.4653C235.795 46.4653 239.799 42.7302 239.799 36.5308C239.799 30.3315 235.864 26.5962 230.659 26.5962Z" fill="black"></path>
<path d="M23.3447 38.9082L23.3447 62.2539L-5.44241e-06 62.2539L-3.40146e-06 38.9082L23.3447 38.9082ZM23.3447 2.04086e-06L23.3447 17.5088C23.3447 19.1255 24.002 20.578 25.0566 21.6328L46.6904 4.08181e-06L62.2451 5.44164e-06L62.2451 15.5635L38.8994 38.9082L52.6738 38.9082C53.8236 38.9083 54.9217 39.3582 55.7344 40.1709L62.2539 46.6904L62.2539 62.2539L46.6904 62.2539L2.5332 18.0967C0.907774 16.4798 -1.24793e-06 14.2746 -1.04762e-06 11.9834L0 0L23.3447 2.04086e-06Z" fill="black"></path>
</svg>